<?xml version="1.0" encoding="UTF-8"?>
<!DOCTYPE svg PUBLIC "-//W3C//DTD SVG 1.1//EN" "http://www.w3.org/Graphics/SVG/1.1/DTD/svg11.dtd">
<svg xmlns="http://www.w3.org/2000/svg" version="1.1" viewBox="0 0 81 81" stroke="none">
	<rect width="100%" height="100%" fill="#ffffff"/>
	<path d="M20,20h7v1h-7z M29,20h1v1h-1z M31,20h1v1h-1z M33,20h1v3h-1z M37,20h5v1h-5z M43,20h1v1h-1z M45,20h2v2h-2z M48,20h1v4h-1z M51,20h2v1h-2z M54,20h7v1h-7z M20,21h1v6h-1z M26,21h1v6h-1z M30,21h1v2h-1z M32,21h1v2h-1z M35,21h1v2h-1z M37,21h1v2h-1z M40,21h2v3h-2z M47,21h1v1h-1z M49,21h1v1h-1z M52,21h1v3h-1z M54,21h1v6h-1z M60,21h1v6h-1z M22,22h3v3h-3z M28,22h1v6h-1z M31,22h1v4h-1z M34,22h1v2h-1z M38,22h2v1h-2z M42,22h1v1h-1z M45,22h1v1h-1z M50,22h1v1h-1z M56,22h3v3h-3z M29,23h1v3h-1z M43,23h2v2h-2z M46,23h1v1h-1z M49,23h1v2h-1z M30,24h1v3h-1z M33,24h1v1h-1z M35,24h2v1h-2z M38,24h2v1h-2z M41,24h2v1h-2z M45,24h1v2h-1z M50,24h2v1h-2z M34,25h2v1h-2z M40,25h1v8h-1z M41,25h1v1h-1z M44,25h1v4h-1z M46,25h2v1h-2z M52,25h1v3h-1z M21,26h5v1h-5z M32,26h1v1h-1z M34,26h1v1h-1z M36,26h1v1h-1z M38,26h1v1h-1z M42,26h1v3h-1z M46,26h1v1h-1z M48,26h1v2h-1z M50,26h1v2h-1z M55,26h5v1h-5z M33,27h1v2h-1z M41,27h1v1h-1z M20,28h1v1h-1z M22,28h5v1h-5z M32,28h1v1h-1z M35,28h3v1h-3z M45,28h3v1h-3z M49,28h1v1h-1z M54,28h5v1h-5z M21,29h1v1h-1z M23,29h3v1h-3z M27,29h1v1h-1z M29,29h1v1h-1z M34,29h1v2h-1z M39,29h1v1h-1z M43,29h1v1h-1z M50,29h3v1h-3z M54,29h1v1h-1z M56,29h1v3h-1z M58,29h1v1h-1z M60,29h1v1h-1z M23,30h1v1h-1z M26,30h1v1h-1z M28,30h1v1h-1z M30,30h1v1h-1z M33,30h1v2h-1z M36,30h1v6h-1z M37,30h2v1h-2z M42,30h1v1h-1z M47,30h1v2h-1z M49,30h2v1h-2z M52,30h1v5h-1z M55,30h1v2h-1z M59,30h1v1h-1z M20,31h3v1h-3z M29,31h1v1h-1z M35,31h1v2h-1z M39,31h1v2h-1z M41,31h1v1h-1z M43,31h1v1h-1z M46,31h1v1h-1z M48,31h1v2h-1z M50,31h2v1h-2z M57,31h1v2h-1z M20,32h1v1h-1z M24,32h3v1h-3z M28,32h1v2h-1z M30,32h1v1h-1z M32,32h1v1h-1z M34,32h1v1h-1z M37,32h1v1h-1z M44,32h2v1h-2z M49,32h1v1h-1z M51,32h1v2h-1z M58,32h1v2h-1z M22,33h2v1h-2z M25,33h1v2h-1z M33,33h1v4h-1z M38,33h1v2h-1z M42,33h1v2h-1z M46,33h2v1h-2z M50,33h1v3h-1z M54,33h1v1h-1z M56,33h1v3h-1z M60,33h1v1h-1z M21,34h1v7h-1z M23,34h2v1h-2z M26,34h2v1h-2z M31,34h1v3h-1z M40,34h2v1h-2z M43,34h1v4h-1z M44,34h2v1h-2z M47,34h3v1h-3z M53,34h1v1h-1z M59,34h1v1h-1z M23,35h1v1h-1z M27,35h2v1h-2z M30,35h1v3h-1z M32,35h1v1h-1z M41,35h1v1h-1z M47,35h1v2h-1z M54,35h1v1h-1z M57,35h1v2h-1z M20,36h1v6h-1z M22,36h1v5h-1z M25,36h3v1h-3z M35,36h1v1h-1z M37,36h1v1h-1z M44,36h2v1h-2z M49,36h1v3h-1z M51,36h2v2h-2z M53,36h1v1h-1z M55,36h1v2h-1z M58,36h2v1h-2z M23,37h1v2h-1z M25,37h1v1h-1z M28,37h2v1h-2z M38,37h3v1h-3z M48,37h1v1h-1z M54,37h1v1h-1z M56,37h1v3h-1z M59,37h2v1h-2z M24,38h1v1h-1z M26,38h2v1h-2z M29,38h1v2h-1z M33,38h1v1h-1z M36,38h1v2h-1z M38,38h1v1h-1z M42,38h1v1h-1z M44,38h1v1h-1z M47,38h1v1h-1z M52,38h1v1h-1z M58,38h1v1h-1z M28,39h1v2h-1z M32,39h1v1h-1z M35,39h1v1h-1z M39,39h2v1h-2z M46,39h1v1h-1z M48,39h1v1h-1z M51,39h1v1h-1z M23,40h1v1h-1z M25,40h3v1h-3z M34,40h1v1h-1z M38,40h1v1h-1z M41,40h2v1h-2z M47,40h1v1h-1z M49,40h1v3h-1z M53,40h1v1h-1z M55,40h1v3h-1z M57,40h2v1h-2z M60,40h1v2h-1z M24,41h1v2h-1z M27,41h1v1h-1z M29,41h1v1h-1z M35,41h1v3h-1z M39,41h1v1h-1z M43,41h2v1h-2z M46,41h1v5h-1z M48,41h1v1h-1z M51,41h1v1h-1z M54,41h1v1h-1z M56,41h1v1h-1z M59,41h1v1h-1z M21,42h1v2h-1z M23,42h1v1h-1z M26,42h1v1h-1z M30,42h3v1h-3z M34,42h1v1h-1z M37,42h2v1h-2z M40,42h3v1h-3z M44,42h2v1h-2z M47,42h1v1h-1z M52,42h2v1h-2z M57,42h2v1h-2z M20,43h1v1h-1z M22,43h1v1h-1z M27,43h2v1h-2z M33,43h1v5h-1z M36,43h1v2h-1z M38,43h1v1h-1z M41,43h3v1h-3z M53,43h2v1h-2z M56,43h2v1h-2z M60,43h1v3h-1z M26,44h1v1h-1z M28,44h3v1h-3z M37,44h1v1h-1z M40,44h1v1h-1z M42,44h4v1h-4z M47,44h1v1h-1z M49,44h1v1h-1z M58,44h2v1h-2z M21,45h1v1h-1z M23,45h2v1h-2z M27,45h2v1h-2z M32,45h1v1h-1z M34,45h1v1h-1z M38,45h2v1h-2z M41,45h1v3h-1z M43,45h1v1h-1z M48,45h1v2h-1z M50,45h2v1h-2z M53,45h1v3h-1z M54,45h1v1h-1z M56,45h1v3h-1z M57,45h1v1h-1z M59,45h1v2h-1z M24,46h1v1h-1z M26,46h2v1h-2z M31,46h1v2h-1z M36,46h1v4h-1z M38,46h1v1h-1z M40,46h1v1h-1z M44,46h2v1h-2z M47,46h1v4h-1z M49,46h1v1h-1z M52,46h1v2h-1z M20,47h1v6h-1z M22,47h1v5h-1z M23,47h1v2h-1z M28,47h1v3h-1z M30,47h1v2h-1z M34,47h2v1h-2z M39,47h1v1h-1z M43,47h1v2h-1z M50,47h2v3h-2z M54,47h2v1h-2z M57,47h1v3h-1z M24,48h3v1h-3z M29,48h1v1h-1z M32,48h1v2h-1z M34,48h1v1h-1z M37,48h2v1h-2z M45,48h1v3h-1z M49,48h1v1h-1z M55,48h1v2h-1z M58,48h1v1h-1z M21,49h1v1h-1z M24,49h1v1h-1z M35,49h1v3h-1z M37,49h1v1h-1z M40,49h2v1h-2z M44,49h1v1h-1z M46,49h1v2h-1z M48,49h1v1h-1z M52,49h1v1h-1z M54,49h1v4h-1z M56,49h1v8h-1z M60,49h1v1h-1z M23,50h1v1h-1z M25,50h3v1h-3z M33,50h1v1h-1z M39,50h1v4h-1z M41,50h2v2h-2z M49,50h1v1h-1z M53,50h1v3h-1z M59,50h1v1h-1z M24,51h1v1h-1z M27,51h2v1h-2z M30,51h1v1h-1z M32,51h1v2h-1z M40,51h1v1h-1z M44,51h1v1h-1z M48,51h1v4h-1z M50,51h3v1h-3z M55,51h1v2h-1z M57,51h1v3h-1z M23,52h1v1h-1z M26,52h2v1h-2z M29,52h1v2h-1z M31,52h1v3h-1z M33,52h2v1h-2z M37,52h1v4h-1z M45,52h1v4h-1z M46,52h1v1h-1z M49,52h1v1h-1z M52,52h1v6h-1z M58,52h1v1h-1z M28,53h1v1h-1z M38,53h1v1h-1z M40,53h4v1h-4z M50,53h2v3h-2z M60,53h1v1h-1z M20,54h7v1h-7z M30,54h1v5h-1z M35,54h2v1h-2z M40,54h2v1h-2z M44,54h1v4h-1z M46,54h2v1h-2z M49,54h1v1h-1z M54,54h1v1h-1z M58,54h2v1h-2z M20,55h1v6h-1z M26,55h1v6h-1z M28,55h1v4h-1z M32,55h3v1h-3z M36,55h1v4h-1z M38,55h2v1h-2z M41,55h1v5h-1z M42,55h1v1h-1z M47,55h1v1h-1z M59,55h1v1h-1z M22,56h3v3h-3z M31,56h1v1h-1z M33,56h1v1h-1z M35,56h1v1h-1z M40,56h1v1h-1z M43,56h1v2h-1z M46,56h1v1h-1z M48,56h1v1h-1z M50,56h1v3h-1z M53,56h1v4h-1z M54,56h2v1h-2z M57,56h2v1h-2z M60,56h1v1h-1z M34,57h1v3h-1z M38,57h2v1h-2z M42,57h1v4h-1z M45,57h1v1h-1z M55,57h1v2h-1z M57,57h1v1h-1z M31,58h1v1h-1z M33,58h1v1h-1z M37,58h1v1h-1z M47,58h2v2h-2z M49,58h1v1h-1z M51,58h1v1h-1z M54,58h1v1h-1z M56,58h1v3h-1z M35,59h1v1h-1z M39,59h2v2h-2z M43,59h1v1h-1z M52,59h1v1h-1z M57,59h1v2h-1z M59,59h1v1h-1z M21,60h5v1h-5z M28,60h6v1h-6z M36,60h2v1h-2z M44,60h2v1h-2z M47,60h1v1h-1z M49,60h1v1h-1z M51,60h1v1h-1z M54,60h2v1h-2z M58,60h1v1h-1z" fill="#000000"/>
</svg>
