<?xml version="1.0" encoding="UTF-8"?>
<!DOCTYPE svg PUBLIC "-//W3C//DTD SVG 1.1//EN" "http://www.w3.org/Graphics/SVG/1.1/DTD/svg11.dtd">
<svg xmlns="http://www.w3.org/2000/svg" version="1.1" viewBox="0 0 73 73" stroke="none">
	<rect width="100%" height="100%" fill="#ffffff"/>
	<path d="M20,20h7v1h-7z M30,20h4v1h-4z M36,20h2v1h-2z M39,20h1v1h-1z M41,20h4v1h-4z M46,20h7v1h-7z M20,21h1v6h-1z M26,21h1v6h-1z M29,21h1v3h-1z M33,21h3v1h-3z M37,21h1v2h-1z M44,21h1v1h-1z M46,21h1v6h-1z M52,21h1v6h-1z M22,22h3v3h-3z M28,22h1v6h-1z M30,22h2v2h-2z M33,22h1v1h-1z M36,22h1v2h-1z M38,22h4v1h-4z M43,22h1v3h-1z M48,22h3v3h-3z M32,23h1v1h-1z M34,23h2v1h-2z M40,23h1v1h-1z M42,23h1v2h-1z M30,24h1v1h-1z M33,24h1v2h-1z M35,24h1v2h-1z M38,24h1v1h-1z M41,24h1v2h-1z M29,25h1v1h-1z M31,25h1v1h-1z M34,25h1v5h-1z M36,25h1v2h-1z M40,25h1v2h-1z M21,26h5v1h-5z M30,26h1v3h-1z M32,26h1v3h-1z M38,26h1v5h-1z M42,26h1v1h-1z M44,26h1v1h-1z M47,26h5v1h-5z M29,27h1v1h-1z M35,27h1v2h-1z M41,27h1v1h-1z M20,28h1v1h-1z M22,28h5v1h-5z M31,28h1v5h-1z M33,28h1v1h-1z M36,28h1v3h-1z M37,28h1v1h-1z M40,28h1v1h-1z M44,28h1v4h-1z M46,28h5v1h-5z M22,29h1v1h-1z M24,29h1v1h-1z M27,29h1v7h-1z M28,29h1v2h-1z M39,29h1v1h-1z M41,29h1v1h-1z M43,29h1v1h-1z M45,29h3v1h-3z M49,29h4v1h-4z M21,30h1v1h-1z M23,30h1v1h-1z M25,30h1v3h-1z M26,30h1v1h-1z M35,30h1v2h-1z M42,30h1v1h-1z M48,30h1v3h-1z M50,30h2v1h-2z M24,31h1v1h-1z M30,31h1v1h-1z M34,31h1v1h-1z M39,31h1v1h-1z M41,31h1v1h-1z M45,31h1v2h-1z M49,31h1v3h-1z M50,31h1v1h-1z M20,32h1v2h-1z M26,32h1v1h-1z M38,32h1v1h-1z M42,32h1v1h-1z M47,32h1v1h-1z M52,32h1v2h-1z M22,33h3v1h-3z M28,33h1v1h-1z M30,33h1v4h-1z M34,33h4v1h-4z M40,33h1v1h-1z M43,33h1v1h-1z M46,33h1v1h-1z M50,33h2v2h-2z M21,34h1v1h-1z M24,34h1v2h-1z M26,34h1v1h-1z M31,34h3v1h-3z M37,34h1v1h-1z M39,34h1v4h-1z M42,34h1v1h-1z M48,34h1v1h-1z M25,35h1v1h-1z M36,35h1v1h-1z M40,35h2v1h-2z M43,35h3v1h-3z M49,35h2v1h-2z M22,36h2v1h-2z M26,36h1v1h-1z M28,36h1v1h-1z M32,36h2v1h-2z M37,36h1v4h-1z M40,36h1v1h-1z M47,36h2v1h-2z M52,36h1v2h-1z M20,37h2v1h-2z M23,37h1v1h-1z M27,37h1v5h-1z M34,37h1v1h-1z M36,37h1v1h-1z M42,37h6v1h-6z M49,37h2v1h-2z M20,38h1v1h-1z M22,38h1v2h-1z M24,38h3v1h-3z M28,38h1v2h-1z M32,38h1v1h-1z M35,38h1v1h-1z M40,38h2v1h-2z M44,38h3v1h-3z M48,38h1v3h-1z M50,38h2v1h-2z M21,39h1v2h-1z M23,39h1v2h-1z M25,39h1v1h-1z M30,39h1v1h-1z M33,39h1v4h-1z M36,39h1v2h-1z M38,39h1v1h-1z M41,39h3v1h-3z M45,39h1v2h-1z M49,39h1v5h-1z M50,39h1v1h-1z M52,39h1v3h-1z M26,40h1v1h-1z M32,40h1v4h-1z M35,40h1v5h-1z M42,40h2v2h-2z M47,40h1v1h-1z M51,40h1v1h-1z M20,41h1v4h-1z M24,41h1v4h-1z M28,41h2v2h-2z M30,41h1v1h-1z M34,41h1v2h-1z M38,41h1v2h-1z M41,41h1v3h-1z M46,41h1v1h-1z M22,42h2v1h-2z M25,42h2v1h-2z M31,42h1v1h-1z M36,42h2v1h-2z M48,42h1v8h-1z M50,42h2v1h-2z M25,43h1v1h-1z M27,43h2v1h-2z M30,43h1v1h-1z M39,43h1v1h-1z M42,43h1v1h-1z M46,43h1v2h-1z M50,43h1v1h-1z M52,43h1v1h-1z M22,44h2v1h-2z M26,44h1v1h-1z M29,44h1v4h-1z M31,44h1v2h-1z M33,44h2v1h-2z M36,44h2v1h-2z M40,44h1v1h-1z M43,44h3v1h-3z M47,44h1v1h-1z M28,45h1v1h-1z M33,45h1v1h-1z M36,45h1v1h-1z M39,45h1v1h-1z M41,45h2v1h-2z M44,45h1v4h-1z M50,45h1v3h-1z M52,45h1v1h-1z M20,46h7v1h-7z M32,46h1v2h-1z M34,46h2v1h-2z M38,46h1v1h-1z M40,46h1v7h-1z M42,46h2v1h-2z M46,46h1v1h-1z M20,47h1v6h-1z M26,47h1v6h-1z M28,47h1v4h-1z M30,47h1v3h-1z M41,47h1v1h-1z M52,47h1v1h-1z M22,48h3v3h-3z M35,48h1v2h-1z M38,48h1v1h-1z M42,48h1v1h-1z M45,48h3v1h-3z M49,48h1v2h-1z M29,49h1v1h-1z M31,49h1v2h-1z M34,49h1v1h-1z M36,49h1v1h-1z M39,49h1v1h-1z M43,49h1v3h-1z M47,49h1v4h-1z M51,49h2v1h-2z M44,50h3v1h-3z M50,50h1v2h-1z M29,51h2v1h-2z M33,51h2v1h-2z M36,51h1v2h-1z M39,51h1v2h-1z M41,51h1v1h-1z M45,51h1v2h-1z M48,51h1v2h-1z M21,52h5v1h-5z M28,52h2v1h-2z M31,52h2v1h-2z M37,52h1v1h-1z M44,52h1v1h-1z M49,52h1v1h-1z M51,52h1v1h-1z" fill="#000000"/>
</svg>
